<svg width="184" height="105" viewBox="0 0 184 105" fill="none" xmlns="http://www.w3.org/2000/svg">
<rect width="184" height="105" fill="#F3D964"/>
<path d="M25.6166 38H20.4975C20.2228 38 20 38.2228 20 38.4975V48.1435L25.6166 38Z" fill="#35293B"/>
<path d="M20 51.2461C20.0162 51.2468 20.0325 51.2472 20.049 51.2472H27.8534C28.4643 51.2472 28.9443 51.7691 28.8922 52.3767L28.2169 60.2527C28.1209 61.3719 29.6237 61.828 30.1681 60.8449L38.2777 46.199C38.6617 45.5053 38.1592 44.6548 37.3652 44.6548H29.5608C28.9499 44.6548 28.4699 44.1329 28.522 43.5253L28.9958 38H36.8714C44.1288 38 47.3821 47.1283 41.7691 51.7429L37.3814 55.3503C37.094 55.5866 37.0374 56.0054 37.2517 56.3099L44.8232 67.0688C45.0555 67.3987 44.8197 67.8529 44.4164 67.8529H20.4975C20.2228 67.8529 20 67.63 20 67.3554V51.2461Z" fill="#35293B"/>
<path d="M105.258 54.1606V61.704H109.424V53.2347C109.424 52.2363 109.207 51.3648 108.771 50.6204C108.354 49.8578 107.755 49.2677 106.974 48.8503C106.193 48.4145 105.285 48.1966 104.25 48.1966C103.234 48.1966 102.335 48.4145 101.555 48.8503C101.347 48.9611 101.152 49.085 100.969 49.2216C100.87 49.2952 100.775 49.3727 100.683 49.4538V42.4779H96.5165V61.704H100.683V54.1606C100.683 53.7068 100.783 53.3074 100.983 52.9624C101.183 52.5992 101.455 52.3269 101.799 52.1454C102.145 51.9457 102.544 51.8458 102.998 51.8458C103.651 51.8458 104.187 52.0638 104.605 52.4994C105.04 52.917 105.258 53.4707 105.258 54.1606Z" fill="#35293B"/>
<path fill-rule="evenodd" clip-rule="evenodd" d="M58.965 53.7795V61.704H54.6901V42.4779H62.5324C63.8037 42.4779 64.9202 42.7231 65.8824 43.2131C66.8442 43.6851 67.598 44.3479 68.1428 45.2011C68.6871 46.0543 68.9593 47.0348 68.9593 48.1422C68.9593 49.2677 68.6871 50.2573 68.1428 51.1105C67.598 51.9457 66.8357 52.5992 65.8551 53.0712C65.3083 53.3346 64.7077 53.5246 64.0534 53.6409L70.2126 61.704H65.1471L59.4128 53.7795H58.965ZM58.965 50.6204H62.0155C62.8688 50.6204 63.5226 50.4025 63.9763 49.9667C64.448 49.5311 64.6843 48.9409 64.6843 48.1966C64.6843 47.5069 64.4575 46.935 64.0032 46.4812C63.5494 46.0271 62.8961 45.8002 62.0428 45.8002H58.965V50.6204Z" fill="#35293B"/>
<path fill-rule="evenodd" clip-rule="evenodd" d="M72.962 61.1321C74.088 61.713 75.3677 62.0036 76.8016 62.0036C77.9097 62.0036 78.9262 61.8129 79.8521 61.4316C80.7775 61.0502 81.5676 60.4783 82.2214 59.716L79.9337 57.4284C79.5342 57.8822 79.0714 58.2272 78.5445 58.4634C78.0181 58.6811 77.4285 58.7902 76.7743 58.7902C76.0668 58.7902 75.4493 58.6449 74.9229 58.3543C74.4144 58.0458 74.0154 57.6191 73.7248 57.0745C73.6332 56.8854 73.5576 56.6843 73.4969 56.4707L82.9837 56.4482C83.0563 56.1032 83.1016 55.8036 83.1195 55.5495C83.1324 55.4546 83.1424 55.362 83.1508 55.2714C83.1553 55.2264 83.1583 55.1822 83.1613 55.1385C83.1658 55.0726 83.1693 55.008 83.1712 54.9446L83.1732 54.8746L83.1742 54.7869C83.1742 53.4978 82.8842 52.3541 82.303 51.3556C81.7403 50.3571 80.9596 49.5765 79.9611 49.0136C78.9625 48.451 77.8092 48.1694 76.5026 48.1694C75.1587 48.1694 73.9517 48.4689 72.8805 49.068C71.8092 49.6671 70.9559 50.4934 70.3206 51.5463C69.7031 52.581 69.3946 53.7612 69.3946 55.0865C69.3946 56.4117 69.7126 57.6009 70.3474 58.6538C70.9833 59.7067 71.855 60.533 72.962 61.1321ZM73.4979 53.6106C73.5183 53.5396 73.5402 53.4702 73.5636 53.4022C73.6034 53.2875 73.6477 53.1769 73.6974 53.0712C73.9701 52.5266 74.3422 52.1089 74.8139 51.8186C75.304 51.5098 75.8762 51.3556 76.5295 51.3556C77.1464 51.3556 77.6639 51.4919 78.0818 51.7642L78.138 51.7977L78.1938 51.8334C78.241 51.8648 78.2863 51.8978 78.3306 51.9324C78.3739 51.9661 78.4162 52.0016 78.457 52.0385C78.7102 52.2679 78.9117 52.5577 79.062 52.908C79.1535 53.113 79.2272 53.3417 79.2834 53.5941L73.4979 53.6106Z" fill="#35293B"/>
<path d="M90.4962 62.0036C89.1339 62.0036 87.8995 61.704 86.7919 61.1049C85.6849 60.5058 84.8137 59.6796 84.1778 58.6266C83.5424 57.5737 83.2245 56.3935 83.2245 55.0865C83.2245 53.7612 83.5424 52.581 84.1778 51.5463C84.8316 50.4934 85.7117 49.6671 86.8193 49.068C87.9268 48.4689 89.1702 48.1694 90.5504 48.1694C91.5848 48.1694 92.5286 48.3511 93.3824 48.7141C93.8173 48.8863 94.2278 49.1037 94.6129 49.3663C94.999 49.6299 95.3607 49.939 95.697 50.2937L93.0282 52.9624C92.7197 52.6174 92.3565 52.3633 91.9391 52.1998C91.7505 52.1228 91.5485 52.064 91.3315 52.0232C91.2325 52.0045 91.131 51.9897 91.0265 51.9787C90.9186 51.9673 90.8076 51.96 90.6932 51.9569C90.6459 51.9554 90.5987 51.9547 90.5504 51.9547C90.4031 51.9547 90.2598 51.963 90.1205 51.9792L90.0454 51.9889L89.9986 51.9957C89.9503 52.0033 89.9021 52.012 89.8543 52.0215C89.5279 52.0871 89.2244 52.201 88.9433 52.3633C88.4895 52.6174 88.1268 52.9804 87.8542 53.4524C87.5999 53.9065 87.4726 54.4419 87.4726 55.0592C87.4726 55.6766 87.5999 56.2213 87.8542 56.693C88.1268 57.1651 88.499 57.5373 88.9707 57.8096C89.4424 58.082 89.9693 58.2182 90.5504 58.2182C91.0952 58.2182 91.5758 58.1274 91.9933 57.9459C92.4291 57.7462 92.8013 57.4738 93.1098 57.1289L95.7518 59.7976C95.0617 60.5238 94.281 61.0774 93.4098 61.4589C92.5381 61.8218 91.5669 62.0036 90.4962 62.0036Z" fill="#35293B"/>
<path fill-rule="evenodd" clip-rule="evenodd" d="M116.539 61.9764C115.323 61.9764 114.234 61.6768 113.272 61.0774C112.328 60.4783 111.574 59.6616 111.012 58.6266C110.467 57.592 110.194 56.4117 110.194 55.0865C110.194 53.7612 110.467 52.581 111.012 51.5463C111.574 50.5114 112.328 49.6946 113.272 49.0952C114.234 48.4961 115.323 48.1966 116.539 48.1966C117.429 48.1966 118.228 48.3691 118.936 48.7141C119.412 48.9402 119.83 49.2249 120.188 49.568V48.4689H124.273V61.704H120.188V60.6316C119.943 60.8636 119.667 61.0692 119.362 61.2483C119.306 61.281 119.249 61.3131 119.191 61.3442C119.117 61.3838 119.041 61.4219 118.963 61.4589C118.237 61.8039 117.429 61.9764 116.539 61.9764ZM117.384 58.2182C118.274 58.2182 118.99 57.9277 119.535 57.3468C120.08 56.7477 120.352 55.9941 120.352 55.0865C120.352 54.7777 120.32 54.4871 120.257 54.2148C120.193 53.9425 120.098 53.6883 119.971 53.4524C119.735 52.9804 119.39 52.6174 118.936 52.3633C118.691 52.21 118.423 52.1 118.131 52.0329C117.905 51.9807 117.665 51.9547 117.411 51.9547C117.121 51.9547 116.846 51.9887 116.588 52.0567C116.43 52.0982 116.278 52.1524 116.132 52.2192C116.039 52.262 115.948 52.3101 115.859 52.3633C115.423 52.6174 115.069 52.9804 114.796 53.4524C114.543 53.9245 114.416 54.4692 114.416 55.0865C114.416 55.6856 114.543 56.2213 114.796 56.693C115.051 57.1651 115.405 57.5373 115.859 57.8096C116.312 58.082 116.821 58.2182 117.384 58.2182Z" fill="#35293B"/>
<path d="M130.284 48.4689H126.118V61.704H130.284V54.4329C130.284 53.5795 130.484 52.9442 130.883 52.5266C131.301 52.091 131.855 51.873 132.544 51.873C132.89 51.873 133.198 51.9275 133.471 52.0365C133.743 52.1454 133.97 52.2996 134.152 52.4994L136.629 49.3676C136.267 48.9682 135.84 48.6778 135.35 48.4961C134.878 48.2964 134.324 48.1966 133.688 48.1966C132.236 48.1966 131.102 48.6235 130.284 49.4767V48.4689Z" fill="#35293B"/>
<path fill-rule="evenodd" clip-rule="evenodd" d="M141.888 67.6405C140.436 67.6405 139.155 67.3862 138.048 66.8782C136.959 66.3881 136.096 65.6891 135.461 64.781L138.021 62.2213C138.493 62.7841 139.02 63.2108 139.6 63.5014C140.199 63.7914 140.916 63.9367 141.752 63.9367C142.787 63.9367 143.594 63.683 144.175 63.1745C144.774 62.6661 145.074 61.9489 145.074 61.023V60.1871C144.791 60.414 144.473 60.6107 144.121 60.7779C143.395 61.1229 142.587 61.2954 141.697 61.2954C140.48 61.2954 139.401 61.0051 138.456 60.4239C137.512 59.8431 136.768 59.0533 136.223 58.0547C135.679 57.0563 135.406 55.9489 135.406 54.7325C135.406 53.4978 135.679 52.3905 136.223 51.41C136.768 50.4115 137.512 49.6309 138.456 49.068C139.401 48.4871 140.48 48.1966 141.697 48.1966C142.605 48.1966 143.413 48.3691 144.121 48.7141C144.186 48.7432 144.25 48.7736 144.313 48.8052C144.621 48.9611 144.903 49.1455 145.156 49.3583V48.4689H149.241V60.9142C149.241 62.2759 148.923 63.4561 148.287 64.4542C147.652 65.4527 146.781 66.2334 145.673 66.7961C144.565 67.3593 143.304 67.6405 141.888 67.6405ZM142.487 57.592C143.068 57.592 143.567 57.4646 143.985 57.2105C144.092 57.1481 144.192 57.0805 144.286 57.0081C144.574 56.7863 144.801 56.5179 144.965 56.203C145.035 56.0733 145.095 55.939 145.144 55.7997C145.208 55.6192 145.255 55.4305 145.284 55.2337C145.308 55.0721 145.319 54.905 145.319 54.7325C145.319 54.1878 145.201 53.6976 144.965 53.262C144.747 52.8261 144.42 52.4811 143.985 52.227C143.567 51.9729 143.068 51.8458 142.487 51.8458C142.315 51.8458 142.15 51.8578 141.99 51.8813L141.907 51.8949L141.833 51.9085C141.675 51.9404 141.523 51.9843 141.377 52.0404C141.295 52.0718 141.216 52.107 141.139 52.1459C141.088 52.1714 141.039 52.1983 140.989 52.227C140.554 52.4811 140.218 52.8261 139.982 53.262C139.858 53.4889 139.767 53.7306 139.709 53.9871C139.654 54.2231 139.628 54.4716 139.628 54.7325C139.628 55.2408 139.745 55.7218 139.982 56.1758C140.218 56.6114 140.544 56.9564 140.962 57.2105C141.196 57.3471 141.451 57.4471 141.727 57.5103C141.965 57.5648 142.218 57.592 142.487 57.592Z" fill="#35293B"/>
<path fill-rule="evenodd" clip-rule="evenodd" d="M153.788 61.1321C154.913 61.713 156.193 62.0036 157.627 62.0036C158.735 62.0036 159.752 61.8129 160.677 61.4316C161.604 61.0502 162.393 60.4783 163.047 59.716L160.759 57.4284C160.36 57.8822 159.897 58.2272 159.37 58.4634C158.844 58.6811 158.254 58.7902 157.601 58.7902C156.893 58.7902 156.275 58.6449 155.749 58.3543C155.385 58.1342 155.078 57.8538 154.827 57.5133C154.786 57.4591 154.748 57.4032 154.711 57.3458C154.654 57.2591 154.6 57.1685 154.551 57.0745C154.459 56.8854 154.383 56.6843 154.322 56.4707L163.809 56.4482C163.845 56.2778 163.875 56.1185 163.897 55.9703C163.92 55.8182 163.936 55.678 163.946 55.5495C163.958 55.4536 163.969 55.3598 163.977 55.2684C163.992 55.1003 164 54.9397 164 54.7869C164 53.4978 163.709 52.3541 163.129 51.3556C162.566 50.3571 161.785 49.5765 160.787 49.0136C159.788 48.451 158.635 48.1694 157.328 48.1694C155.985 48.1694 154.777 48.4689 153.706 49.068C152.635 49.6671 151.782 50.4934 151.146 51.5463C150.529 52.581 150.22 53.7612 150.22 55.0865C150.22 56.4117 150.538 57.6009 151.174 58.6538C151.809 59.7067 152.68 60.533 153.788 61.1321ZM154.324 53.6106C154.378 53.4196 154.445 53.2396 154.523 53.0712C154.679 52.7603 154.866 52.4909 155.087 52.263C155.164 52.1831 155.246 52.1082 155.331 52.0385C155.429 51.9586 155.531 51.8852 155.64 51.8186C156.13 51.5098 156.702 51.3556 157.355 51.3556C157.973 51.3556 158.49 51.4919 158.908 51.7642C159.074 51.8614 159.225 51.977 159.359 52.1114C159.577 52.3284 159.753 52.5938 159.888 52.908C159.979 53.113 160.052 53.3417 160.109 53.5941L154.324 53.6106Z" fill="#35293B"/>
</svg>
