<svg width="184" height="105" viewBox="0 0 184 105" fill="none" xmlns="http://www.w3.org/2000/svg">
<rect width="184" height="105" fill="white"/>
<path d="M137.138 39.3694V66.0719H141.046V39.3694H137.138Z" fill="black"/>
<path fill-rule="evenodd" clip-rule="evenodd" d="M101.8 66.503C100.258 66.503 98.9693 66.1438 97.9347 65.4253C97.8214 65.3469 97.7115 65.265 97.6044 65.1801V66.0719H94.156V39.8004H98.0929V51.0551C99.0586 50.4341 100.227 50.1236 101.598 50.1236C103.083 50.1236 104.376 50.478 105.478 51.1868C106.58 51.8956 107.432 52.8679 108.035 54.1035C108.648 55.3296 108.955 56.7329 108.955 58.3131C108.955 59.865 108.653 61.2586 108.05 62.4945C107.456 63.73 106.622 64.707 105.55 65.4253C104.477 66.1438 103.227 66.503 101.8 66.503ZM97.9491 55.8421C97.7191 56.5508 97.6044 57.3744 97.6044 58.3131C97.6044 59.2518 97.7191 60.0758 97.9491 60.7845C98.1788 61.4935 98.5527 62.044 99.0696 62.437C99.5965 62.8296 100.296 63.0258 101.167 63.0258C102.01 63.0258 102.7 62.8153 103.237 62.3938C103.773 61.9724 104.17 61.4072 104.429 60.6982C104.688 59.98 104.817 59.1851 104.817 58.3131C104.817 57.4511 104.683 56.6658 104.415 55.9571C104.147 55.2386 103.73 54.6686 103.165 54.2472C102.609 53.8162 101.895 53.6006 101.024 53.6006C100.21 53.6006 99.5485 53.797 99.0412 54.1897C98.5431 54.5824 98.1788 55.1331 97.9491 55.8421Z" fill="black"/>
<path d="M87.9774 56.9051V66.0719H91.8852V55.8709C91.8852 54.1754 91.4303 52.8056 90.5203 51.7616C89.62 50.7079 88.2838 50.1811 86.5118 50.1811C85.4773 50.1811 84.5338 50.411 83.6814 50.8707C82.9008 51.2876 82.2641 51.8605 81.7711 52.5894C81.4034 51.9279 80.8954 51.3837 80.2474 50.9569C79.4716 50.4397 78.4754 50.1811 77.2591 50.1811C76.1958 50.1811 75.2331 50.4158 74.3711 50.8851C73.7196 51.2438 73.1688 51.7003 72.7186 52.2548V50.5547H69.2705V66.0719H73.2071V56.6754C73.2071 55.7846 73.4515 55.0614 73.9401 54.5058C74.4382 53.9407 75.0941 53.6581 75.9082 53.6581C76.761 53.6581 77.4265 53.9455 77.9054 54.5202C78.3939 55.0853 78.6384 55.8805 78.6384 56.9051V66.0719H82.5462V56.6754C82.5462 56.0814 82.6564 55.5593 82.8769 55.1093C83.1066 54.6495 83.4226 54.2951 83.8252 54.0461C84.2274 53.7874 84.7015 53.6581 85.2476 53.6581C86.1 53.6581 86.7655 53.9455 87.2445 54.5202C87.733 55.0853 87.9774 55.8805 87.9774 56.9051Z" fill="black"/>
<path d="M55.2691 65.9138C56.0353 66.3256 57.0267 66.5317 58.2434 66.5317C59.7661 66.5317 61.0259 66.2013 62.0222 65.5403C62.4949 65.2298 62.9116 64.8734 63.272 64.4718V66.0719H66.7204V50.5547H62.7835V58.4282C62.7835 59.386 62.6733 60.1618 62.4532 60.7557C62.2423 61.3401 61.9694 61.7855 61.6339 62.0919C61.2988 62.389 60.9397 62.59 60.5566 62.6954C60.1735 62.8009 59.8141 62.8536 59.4789 62.8536C58.6457 62.8536 57.999 62.6667 57.5392 62.2932C57.089 61.9197 56.7635 61.4551 56.5622 60.8995C56.3612 60.3439 56.2414 59.7931 56.2031 59.247C56.1647 58.6918 56.1455 58.2368 56.1455 57.8821V50.5547H52.1802V59.2614C52.1802 59.5202 52.199 59.9321 52.2374 60.4973C52.2757 61.0625 52.386 61.6896 52.5681 62.3795C52.7499 63.0593 53.0518 63.7156 53.4732 64.3479C53.9042 64.9799 54.503 65.5019 55.2691 65.9138Z" fill="black"/>
<path d="M110.68 50.5547V66.0719H114.616V58.1409C114.616 57.547 114.698 57.0153 114.861 56.546C115.024 56.067 115.263 55.6552 115.579 55.3105C115.895 54.956 116.283 54.6734 116.743 54.4627C117.203 54.2424 117.715 54.1131 118.28 54.0748C118.855 54.0269 119.358 54.07 119.789 54.2041V50.5547C119.319 50.4972 118.85 50.4876 118.381 50.5259C117.911 50.5547 117.456 50.6361 117.016 50.7702C116.575 50.8947 116.168 51.0719 115.795 51.3018C115.306 51.5891 114.894 51.9531 114.559 52.3938C114.4 52.6023 114.257 52.8216 114.128 53.0517V50.5547H110.68Z" fill="black"/>
<path fill-rule="evenodd" clip-rule="evenodd" d="M128.017 66.503C126.427 66.503 125.024 66.163 123.807 65.4828C122.6 64.7933 121.652 63.8498 120.963 62.6523C120.282 61.4456 119.942 60.0663 119.942 58.5144C119.942 56.8192 120.278 55.344 120.948 54.0892C121.619 52.8343 122.543 51.8621 123.721 51.1725C124.899 50.4733 126.255 50.1236 127.787 50.1236C129.416 50.1236 130.8 50.5068 131.939 51.2731C133.079 52.0393 133.922 53.1169 134.468 54.5058C135.014 55.8948 135.206 57.5278 135.043 59.4052H124.147C124.269 60.3367 124.559 61.0933 125.014 61.6753C125.647 62.4609 126.571 62.8536 127.787 62.8536C128.554 62.8536 129.21 62.6858 129.756 62.3507C130.302 62.0155 130.718 61.5318 131.006 60.8995L134.914 62.0203C134.329 63.438 133.405 64.5393 132.141 65.3246C130.886 66.1103 129.512 66.503 128.017 66.503ZM130.417 54.5633C130.75 55.017 130.975 55.6638 131.089 56.5028H124.25C124.402 55.7863 124.657 55.1971 125.014 54.7357C125.647 53.9215 126.628 53.5144 127.96 53.5144C129.1 53.5144 129.919 53.8641 130.417 54.5633Z" fill="black"/>
<path d="M144.204 66.0719V39.3694H148.112V66.0719H144.204Z" fill="black"/>
<path fill-rule="evenodd" clip-rule="evenodd" d="M152.462 65.8706C153.239 66.2921 154.182 66.503 155.293 66.503C156.634 66.503 157.74 66.2729 158.612 65.8131C159.307 65.4431 159.963 64.8946 160.58 64.1672V66.0719H164V56.5891C164 55.8805 163.971 55.2386 163.914 54.6639C163.856 54.0892 163.674 53.5144 163.368 52.9397C162.822 51.9052 162.017 51.1773 160.954 50.7558C159.891 50.3344 158.674 50.1236 157.304 50.1236C155.437 50.1236 153.962 50.5259 152.879 51.3305C151.797 52.1351 151.059 53.1792 150.667 54.4627L154.201 55.5833C154.45 54.8746 154.886 54.3813 155.509 54.1035C156.131 53.8257 156.73 53.6868 157.304 53.6868C158.339 53.6868 159.076 53.9024 159.517 54.3334C159.863 54.6719 160.073 55.1609 160.148 55.8007C159.486 55.901 158.859 55.9962 158.267 56.0862C157.261 56.23 156.361 56.3834 155.566 56.546C154.771 56.7089 154.086 56.8958 153.511 57.1064C152.678 57.4128 152.012 57.7962 151.514 58.256C151.026 58.7061 150.671 59.2279 150.451 59.8218C150.231 60.4158 150.12 61.0721 150.12 61.7903C150.12 62.6523 150.317 63.4424 150.71 64.161C151.112 64.8696 151.696 65.4396 152.462 65.8706ZM157.937 63.0546C157.448 63.3038 156.845 63.4284 156.126 63.4284C155.676 63.4284 155.288 63.3613 154.963 63.2271C154.637 63.0929 154.383 62.9015 154.201 62.6523C154.029 62.3938 153.942 62.0871 153.942 61.7328C153.942 61.4743 153.995 61.2395 154.101 61.0289C154.215 60.818 154.388 60.6267 154.618 60.4541C154.857 60.272 155.168 60.1046 155.552 59.9512C155.887 59.8266 156.275 59.7116 156.715 59.6065C157.156 59.5011 157.735 59.386 158.454 59.2614C158.916 59.1755 159.468 59.0772 160.112 58.9673C160.103 59.2405 160.086 59.5493 160.063 59.8937C160.034 60.4493 159.919 60.9379 159.718 61.3593C159.613 61.5794 159.412 61.8526 159.115 62.1782C158.828 62.5037 158.435 62.7961 157.937 63.0546Z" fill="black"/>
<path fill-rule="evenodd" clip-rule="evenodd" d="M30.6126 50.6666H20V55.2882C20 62.1891 25.5944 67.7836 32.4954 67.7836C39.3965 67.7836 44.991 62.1891 44.991 55.2882V50.6666H34.036V43.3063C34.036 40.3757 31.6603 38 28.7297 38C25.7991 38 23.4234 40.3757 23.4234 43.3063H26.8468C26.8468 42.2664 27.6898 41.4234 28.7297 41.4234C29.7696 41.4234 30.6126 42.2664 30.6126 43.3063V50.6666ZM30.6126 54.09V60.5945H34.036V54.09H41.5676V55.2882C41.5676 60.2987 37.5058 64.3602 32.4954 64.3602C27.4851 64.3602 23.4234 60.2987 23.4234 55.2882V54.09H30.6126Z" fill="#EE1B23"/>
</svg>
