<svg width="184" height="105" viewBox="0 0 184 105" fill="none" xmlns="http://www.w3.org/2000/svg">
<rect width="184" height="105" fill="black"/>
<path d="M83.4698 41.0316C83.9666 41.5533 84.7245 41.8142 85.7429 41.8142C86.7614 41.8142 87.5068 41.5533 87.9788 41.0316C88.4512 40.485 88.6869 39.8142 88.6869 39.0192C88.6869 38.1745 88.4512 37.4913 87.9788 36.9695C87.5068 36.4478 86.7614 36.187 85.7429 36.187C84.7245 36.187 83.9666 36.4478 83.4698 36.9695C82.9974 37.4913 82.7617 38.1745 82.7617 39.0192C82.7617 39.8142 82.9974 40.485 83.4698 41.0316Z" fill="white"/>
<path d="M59.8123 44.2365L66.1478 64.4724H74.4581L79.9362 44.2365H74.9429L70.8206 60.224H69.9407L65.1418 44.2365H59.8123Z" fill="white"/>
<path d="M100.47 65.1059C97.688 65.1059 95.5014 64.5221 93.9116 63.354C92.3466 62.1615 91.5266 60.5219 91.452 58.4353H96.1101C96.1847 59.1305 96.5701 59.7641 97.2653 60.3355C97.961 60.9068 99.0545 61.1928 100.545 61.1928C101.787 61.1928 102.768 60.969 103.489 60.5219C104.234 60.0748 104.607 59.4662 104.607 58.6959C104.607 58.0251 104.321 57.491 103.75 57.0934C103.203 56.696 102.259 56.4351 100.917 56.3109L99.1287 56.1245C96.868 55.8761 95.1289 55.2301 93.9116 54.1867C92.6942 53.1432 92.0855 51.7519 92.0855 50.0128C92.0855 48.6215 92.4331 47.4538 93.1289 46.5098C93.8246 45.5657 94.7813 44.8576 95.9987 44.3856C97.2405 43.8887 98.6567 43.6403 100.247 43.6403C102.731 43.6403 104.744 44.1868 106.284 45.28C107.824 46.3731 108.632 47.9756 108.706 50.0873H104.048C103.998 49.3917 103.651 48.7954 103.005 48.2985C102.359 47.8017 101.427 47.5532 100.21 47.5532C99.1162 47.5532 98.2718 47.7644 97.6756 48.1868C97.0793 48.6091 96.781 49.1557 96.781 49.8265C96.781 50.4725 97.0172 50.9693 97.4891 51.3172C97.9859 51.665 98.781 51.901 99.8741 52.0252L101.663 52.2115C104.048 52.46 105.911 53.1183 107.253 54.1867C108.619 55.255 109.303 56.696 109.303 58.5094C109.303 59.8511 108.93 61.0187 108.185 62.0128C107.464 62.9815 106.445 63.7394 105.129 64.2859C103.812 64.8324 102.259 65.1059 100.47 65.1059Z" fill="white"/>
<path d="M112.315 41.0316C112.812 41.5533 113.569 41.8142 114.588 41.8142C115.607 41.8142 116.352 41.5533 116.824 41.0316C117.296 40.485 117.532 39.8142 117.532 39.0192C117.532 38.1745 117.296 37.4913 116.824 36.9695C116.352 36.4478 115.607 36.187 114.588 36.187C113.569 36.187 112.812 36.4478 112.315 36.9695C111.843 37.4913 111.607 38.1745 111.607 39.0192C111.607 39.8142 111.843 40.485 112.315 41.0316Z" fill="white"/>
<path fill-rule="evenodd" clip-rule="evenodd" d="M131.701 65.1801C129.912 65.1801 128.334 64.8946 126.968 64.3232C125.601 63.7518 124.446 62.9815 123.502 62.0128C122.558 61.0187 121.837 59.9008 121.341 58.6586C120.869 57.4164 120.632 56.1245 120.632 54.7829V54.0003C120.632 52.6091 120.881 51.2923 121.378 50.0501C121.9 48.7831 122.633 47.665 123.576 46.6961C124.546 45.7023 125.713 44.9322 127.08 44.3856C128.446 43.8142 129.986 43.5285 131.701 43.5285C133.415 43.5285 134.955 43.8142 136.321 44.3856C137.688 44.9322 138.843 45.7023 139.788 46.6961C140.756 47.665 141.489 48.7831 141.986 50.0501C142.483 51.2923 142.732 52.6091 142.732 54.0003V54.7829C142.732 56.1245 142.483 57.4164 141.986 58.6586C141.514 59.9008 140.806 61.0187 139.862 62.0128C138.918 62.9815 137.763 63.7518 136.396 64.3232C135.03 64.8946 133.465 65.1801 131.701 65.1801ZM131.701 60.7457C132.968 60.7457 134.036 60.4722 134.906 59.9257C135.775 59.3543 136.433 58.5964 136.881 57.6524C137.328 56.6835 137.551 55.5904 137.551 54.373C137.551 53.1308 137.316 52.0376 136.844 51.0936C136.396 50.1246 135.725 49.3669 134.831 48.8203C133.961 48.2489 132.918 47.9632 131.701 47.9632C130.483 47.9632 129.428 48.2489 128.533 48.8203C127.664 49.3669 126.993 50.1246 126.52 51.0936C126.048 52.0376 125.813 53.1308 125.813 54.373C125.813 55.5904 126.036 56.6835 126.484 57.6524C126.955 58.5964 127.626 59.3543 128.496 59.9257C129.365 60.4722 130.434 60.7457 131.701 60.7457Z" fill="white"/>
<path d="M149.951 47.7768C149.772 48.222 149.623 48.7041 149.503 49.2232V44.2365H145.404V64.4724H150.584V52.5842C150.584 51.2675 150.969 50.224 151.739 49.4538C152.534 48.6588 153.565 48.2613 154.832 48.2613C156.075 48.2613 157.043 48.6464 157.739 49.4166C158.46 50.1868 158.82 51.1929 158.82 52.4352V64.4724H164V52.8823C164 49.8017 163.379 47.4911 162.137 45.9508C160.894 44.3856 159.068 43.603 156.658 43.603H156.435C154.82 43.603 153.466 43.9508 152.373 44.6464C151.305 45.3421 150.497 46.3856 149.951 47.7768Z" fill="white"/>
<path d="M83.8423 48.1123V64.4724H89.0226V44.2365H81.0102V48.1123H83.8423Z" fill="white"/>
<path d="M112.688 48.1123V64.4724H117.867V44.2365H109.855V48.1123H112.688Z" fill="white"/>
<path fill-rule="evenodd" clip-rule="evenodd" d="M37.409 68.6311C46.368 68.6311 53.6309 61.3681 53.6309 52.409C53.6309 43.4498 46.368 36.187 37.409 36.187C28.4498 36.187 21.187 43.4498 21.187 52.409C21.187 61.3681 28.4498 68.6311 37.409 68.6311ZM49.3475 50.7256C47.8349 52.4945 45.7043 53.596 43.3437 53.596C38.7547 53.596 35.0347 49.4332 35.0347 44.298C35.0347 43.0061 35.2701 41.7757 35.6957 40.6577C29.9454 41.531 25.5391 46.496 25.5391 52.4901C25.5391 54.239 25.9142 55.9003 26.5884 57.3979C27.2723 56.7617 28.2334 56.3657 29.2979 56.3657C31.3738 56.3657 33.0566 57.8715 33.0566 59.729C33.0566 60.9761 32.2978 62.0647 31.1708 62.6454C33.0085 63.7944 35.1806 64.4586 37.5078 64.4586C44.1179 64.4586 49.4767 59.1003 49.4767 52.4901C49.4767 51.8906 49.4323 51.3014 49.3475 50.7256Z" fill="white"/>
<path fill-rule="evenodd" clip-rule="evenodd" d="M37.409 68.6311C46.368 68.6311 53.6309 61.3681 53.6309 52.409C53.6309 43.4498 46.368 36.187 37.409 36.187C28.4498 36.187 21.187 43.4498 21.187 52.409C21.187 61.3681 28.4498 68.6311 37.409 68.6311ZM49.3475 50.7256C47.8349 52.4945 45.7043 53.596 43.3437 53.596C38.7547 53.596 35.0347 49.4332 35.0347 44.298C35.0347 43.0061 35.2701 41.7757 35.6957 40.6577C29.9454 41.531 25.5391 46.496 25.5391 52.4901C25.5391 54.239 25.9142 55.9003 26.5884 57.3979C27.2723 56.7617 28.2334 56.3657 29.2979 56.3657C31.3738 56.3657 33.0566 57.8715 33.0566 59.729C33.0566 60.9761 32.2978 62.0647 31.1708 62.6454C33.0085 63.7944 35.1806 64.4586 37.5078 64.4586C44.1179 64.4586 49.4767 59.1003 49.4767 52.4901C49.4767 51.8906 49.4323 51.3014 49.3475 50.7256Z" fill="white"/>
<path d="M49.3475 50.7256L50.5214 50.5521L50.1404 47.972L48.4453 49.9542L49.3475 50.7256ZM35.6957 40.6577L36.805 41.0799L37.5286 39.1787L35.5174 39.4842L35.6957 40.6577ZM26.5884 57.3979L25.506 57.8851L26.1853 59.3942L27.3969 58.2669L26.5884 57.3979ZM31.1708 62.6454L30.6271 61.5901L28.7726 62.5455L30.5414 63.6519L31.1708 62.6454ZM52.4442 52.409C52.4442 60.7128 45.7127 67.4439 37.409 67.4439V69.8178C47.0237 69.8178 54.8181 62.0239 54.8181 52.409H52.4442ZM37.409 37.3739C45.7127 37.3739 52.4442 44.1054 52.4442 52.409H54.8181C54.8181 42.7943 47.0237 35 37.409 35V37.3739ZM22.374 52.409C22.374 44.1054 29.1054 37.3739 37.409 37.3739V35C27.7943 35 20 42.7943 20 52.409H22.374ZM37.409 67.4439C29.1054 67.4439 22.374 60.7128 22.374 52.409H20C20 62.0239 27.7943 69.8178 37.409 69.8178V67.4439ZM43.3437 54.783C46.0896 54.783 48.5377 53.499 50.2496 51.4971L48.4453 49.9542C47.1321 51.4899 45.3189 52.4091 43.3437 52.4091V54.783ZM33.8477 44.298C33.8477 49.9597 37.9771 54.783 43.3437 54.783V52.4091C39.5323 52.4091 36.2217 48.9067 36.2217 44.298H33.8477ZM34.5863 40.2354C34.1096 41.4881 33.8477 42.8615 33.8477 44.298H36.2217C36.2217 43.1507 36.4307 42.0633 36.805 41.0799L34.5863 40.2354ZM26.7261 52.4901C26.7261 47.0915 30.695 42.6178 35.8739 41.8312L35.5174 39.4842C29.1959 40.4443 24.3521 45.9004 24.3521 52.4901H26.7261ZM27.6707 56.9107C27.0642 55.5632 26.7261 54.0677 26.7261 52.4901H24.3521C24.3521 54.4103 24.7643 56.2373 25.506 57.8851L27.6707 56.9107ZM29.2979 55.1788C27.9396 55.1788 26.6879 55.6841 25.7798 56.5288L27.3969 58.2669C27.8566 57.8392 28.5272 57.5527 29.2979 57.5527V55.1788ZM34.2436 59.729C34.2436 57.0952 31.9017 55.1788 29.2979 55.1788V57.5527C30.8458 57.5527 31.8697 58.6479 31.8697 59.729H34.2436ZM31.7144 63.7008C33.1754 62.9478 34.2436 61.4853 34.2436 59.729H31.8697C31.8697 60.4669 31.4203 61.1817 30.6271 61.5901L31.7144 63.7008ZM37.5078 63.2719C35.4095 63.2719 33.4546 62.6734 31.8001 61.639L30.5414 63.6519C32.5623 64.9155 34.9516 65.6458 37.5078 65.6458V63.2719ZM48.2895 52.4901C48.2895 58.4446 43.4622 63.2719 37.5078 63.2719V65.6458C44.7733 65.6458 50.6634 59.7556 50.6634 52.4901H48.2895ZM48.1732 50.8991C48.2495 51.4177 48.2895 51.9489 48.2895 52.4901H50.6634C50.6634 51.8324 50.615 51.1852 50.5214 50.5521L48.1732 50.8991Z" fill="white"/>
</svg>
