<svg width="184" height="105" viewBox="0 0 184 105" fill="none" xmlns="http://www.w3.org/2000/svg">
<rect width="184" height="105" fill="#E27443"/>
<path d="M101.169 62.8132V39.5482H105.384V62.8132H101.169Z" fill="white"/>
<path d="M65.4865 40.1918L74.3997 62.8132H77.8748L86.8849 40.1918H82.2192L76.1899 56.0743L70.2166 40.1918H65.4865Z" fill="white"/>
<path fill-rule="evenodd" clip-rule="evenodd" d="M87.5143 62.073C88.7799 62.781 90.1961 63.1351 91.7622 63.1351C93.3279 63.1351 94.7333 62.781 95.9775 62.073C97.2432 61.344 98.2405 60.3676 98.97 59.1448C99.6995 57.9005 100.064 56.517 100.064 54.9939C100.064 53.4708 99.6995 52.1086 98.97 50.9072C98.2405 49.6844 97.2432 48.7191 95.9775 48.0112C94.7333 47.2818 93.3171 46.9171 91.7301 46.9171C90.1854 46.9171 88.7799 47.2818 87.5143 48.0112C86.2486 48.7191 85.2513 49.6844 84.5218 50.9072C83.7923 52.1086 83.428 53.4708 83.428 54.9939C83.428 56.517 83.7923 57.9005 84.5218 59.1448C85.2727 60.3676 86.27 61.344 87.5143 62.073ZM93.8216 58.6943C93.2207 59.0376 92.5234 59.209 91.7301 59.209C90.9577 59.209 90.2711 59.0376 89.6706 58.6943C89.0697 58.3296 88.5978 57.8362 88.2545 57.2144C87.9112 56.5706 87.7397 55.8413 87.7397 55.0261C87.7397 54.2109 87.9112 53.4922 88.2545 52.8701C88.5978 52.248 89.0697 51.7653 89.6706 51.4221C90.2711 51.0574 90.9577 50.8751 91.7301 50.8751C92.5234 50.8751 93.2207 51.0574 93.8216 51.4221C94.4221 51.7653 94.894 52.248 95.2373 52.8701C95.5806 53.4922 95.752 54.2109 95.752 55.0261C95.752 55.8413 95.5806 56.5706 95.2373 57.2144C94.9154 57.8362 94.4435 58.3296 93.8216 58.6943Z" fill="white"/>
<path d="M110.471 62.2663C111.543 62.8453 112.766 63.1351 114.139 63.1351C115.512 63.1351 116.724 62.856 117.775 62.2984C118.848 61.7194 119.674 60.9149 120.253 59.885C120.854 58.8555 121.154 57.6541 121.154 56.281V47.2711H116.938V56.1845C116.938 57.1501 116.692 57.9005 116.198 58.4372C115.705 58.9733 115.019 59.2417 114.139 59.2417C113.56 59.2417 113.056 59.1233 112.627 58.8876C112.198 58.6514 111.876 58.3081 111.662 57.8577C111.447 57.3858 111.34 56.8282 111.34 56.1845V47.2711H107.092V56.281C107.092 57.6327 107.392 58.8233 107.993 59.8528C108.594 60.8823 109.42 61.6868 110.471 62.2663Z" fill="white"/>
<path d="M122.902 62.8132V47.2711H127.117V48.6195C127.494 48.2514 127.923 47.9413 128.404 47.6894C129.305 47.196 130.325 46.9493 131.461 46.9493C132.534 46.9493 133.51 47.196 134.389 47.6894C135.127 48.0849 135.736 48.6236 136.217 49.3053C136.737 48.6418 137.372 48.1139 138.122 47.7216C139.066 47.2067 140.117 46.9493 141.276 46.9493C142.434 46.9493 143.475 47.196 144.397 47.6894C145.32 48.1614 146.049 48.8478 146.585 49.7488C147.122 50.6498 147.39 51.7224 147.39 52.9666V62.8132H143.175V53.6424C143.175 52.7414 142.885 52.0442 142.305 51.5508C141.748 51.0359 141.05 50.7785 140.214 50.7785C139.678 50.7785 139.174 50.8965 138.702 51.1325C138.251 51.347 137.897 51.6688 137.64 52.0978C137.382 52.5269 137.253 53.0417 137.253 53.6424V62.8132H133.038V53.6424C133.038 52.7414 132.748 52.0442 132.169 51.5508C131.612 51.0359 130.914 50.7785 130.078 50.7785C129.52 50.7785 129.016 50.8965 128.565 51.1325C128.115 51.347 127.761 51.6688 127.504 52.0978C127.246 52.5269 127.117 53.0417 127.117 53.6424V62.8132H122.902Z" fill="white"/>
<path fill-rule="evenodd" clip-rule="evenodd" d="M152.287 62.1051C153.552 62.7918 155.001 63.1351 156.631 63.1351C157.897 63.1351 159.066 62.9096 160.138 62.4591C161.232 62.0087 162.155 61.344 162.906 60.464L160.428 57.9867C159.956 58.5229 159.399 58.9305 158.755 59.209C158.111 59.4667 157.393 59.5952 156.599 59.5952C155.719 59.5952 154.947 59.4131 154.282 59.0483C153.617 58.6622 153.102 58.126 152.737 57.4394C152.6 57.1566 152.49 56.8547 152.408 56.5342L163.775 56.5063C163.86 56.1416 163.914 55.8198 163.935 55.5409C163.979 55.2406 164 54.951 164 54.6721C164 53.1919 163.667 51.8726 163.002 50.7142C162.359 49.5343 161.457 48.6119 160.299 47.9468C159.162 47.2603 157.843 46.9171 156.341 46.9171C154.818 46.9171 153.434 47.2818 152.19 48.0112C150.946 48.7191 149.959 49.6844 149.23 50.9072C148.522 52.1086 148.168 53.4815 148.168 55.0261C148.168 56.592 148.533 57.9867 149.262 59.209C150.013 60.4319 151.021 61.3975 152.287 62.1051ZM152.412 53.3801C152.487 53.0955 152.585 52.829 152.705 52.5805C153.048 51.8941 153.531 51.3685 154.153 51.0038C154.775 50.6176 155.505 50.4245 156.341 50.4245C157.135 50.4245 157.8 50.5962 158.336 50.9394C158.894 51.2612 159.312 51.7332 159.591 52.3553C159.736 52.6548 159.851 52.9891 159.936 53.3582L152.412 53.3801Z" fill="white"/>
<path fill-rule="evenodd" clip-rule="evenodd" d="M39.5792 72.1582C50.3927 72.1582 59.1582 63.3927 59.1582 52.5792C59.1582 41.7659 50.3927 33 39.5792 33C28.7659 33 20 41.7659 20 52.5792C20 63.3927 28.7659 72.1582 39.5792 72.1582ZM47.6881 40.5952C47.9205 40.7917 48.0542 41.0806 48.0542 41.385L48.0537 45.3186L48.0542 45.5774L48.0537 45.6084V58.7758C48.0537 61.0631 46.1997 62.9166 43.913 62.9166C41.6261 62.9166 39.7723 61.0631 39.7723 58.7758C39.7723 56.4891 41.6261 54.6352 43.913 54.6352C44.6671 54.6352 45.3743 54.8369 45.9831 55.1893V46.7993L35.6313 48.525V60.8464C35.6313 63.1332 33.7775 64.9867 31.4907 64.9867C29.2038 64.9867 27.35 63.1332 27.35 60.8464C27.35 58.5597 29.2038 56.7057 31.4907 56.7057C32.2449 56.7057 32.9523 56.9074 33.5609 57.2595L33.5614 47.6477L33.5609 47.3889L33.5614 47.358V43.4552C33.5614 42.9494 33.9272 42.5174 34.4266 42.4342L46.8486 40.3639C47.1486 40.3139 47.4556 40.3985 47.6881 40.5952Z" fill="white"/>
</svg>
