<svg width="184" height="105" viewBox="0 0 184 105" fill="none" xmlns="http://www.w3.org/2000/svg">
<rect width="184" height="105" fill="#FAFAFA"/>
<path fill-rule="evenodd" clip-rule="evenodd" d="M25.2672 45.0138C27.6854 41.7611 31.5578 39.6537 35.9224 39.6537C40.3127 39.6537 44.2048 41.7859 46.62 45.0713C46.5173 45.177 46.4236 45.2866 46.339 45.396C45.8965 45.9689 45.5636 46.7069 45.2969 47.4563C44.7599 48.9635 44.3502 50.9323 43.971 52.7759L43.9373 52.9416C43.5588 54.7818 43.2071 56.4932 42.7818 57.7637C42.5907 58.3344 42.4095 58.7379 42.2489 58.9964C42.0812 58.7359 41.891 58.3274 41.6896 57.7485C41.2348 56.4416 40.8522 54.6639 40.4467 52.7658L40.4335 52.7037C40.0438 50.8805 39.6304 48.946 39.115 47.4653C38.856 46.7215 38.5383 45.9909 38.1227 45.4233C37.7149 44.8662 37.036 44.2375 36.0431 44.2375C35.0564 44.2375 34.3744 44.8594 33.9606 45.4102C33.537 45.9741 33.2068 46.7017 32.9347 47.4459C32.3869 48.9445 31.9389 50.9048 31.5221 52.7509L31.479 52.9416C31.0662 54.7704 30.6804 56.4801 30.2423 57.753C30.0751 58.2391 29.9173 58.6089 29.7745 58.8731C29.6349 58.6101 29.4811 58.2428 29.3184 57.7608C28.8982 56.515 28.53 54.8532 28.1347 53.0682L28.0655 52.7559C27.6558 50.9086 27.2114 48.9448 26.6557 47.4415C26.3796 46.6945 26.0419 45.9633 25.6049 45.3967C25.506 45.2685 25.3935 45.1383 25.2672 45.0138ZM23.8036 47.5114C23.9188 47.7388 24.0406 48.0207 24.1666 48.3615C24.6475 49.6627 25.055 51.4383 25.4746 53.3304L25.5563 53.6991C25.9383 55.4256 26.3358 57.2214 26.8039 58.6089C27.0528 59.3469 27.3535 60.0697 27.7402 60.6314C28.1059 61.1626 28.7619 61.8489 29.7706 61.8489C30.7764 61.8489 31.434 61.1659 31.8021 60.6371C32.1921 60.0766 32.4977 59.3547 32.7517 58.6163C33.2386 57.2014 33.6532 55.3634 34.05 53.6044L34.1106 53.3354C34.5381 51.4421 34.9497 49.663 35.4271 48.3571C35.6483 47.7521 35.8554 47.3306 36.0357 47.0691C36.2066 47.3283 36.4018 47.7431 36.6088 48.3378C37.0637 49.6447 37.4459 51.4224 37.8516 53.3204L37.8648 53.3826C38.2545 55.2058 38.6679 57.1403 39.1833 58.6208C39.4423 59.365 39.76 60.0955 40.1756 60.663C40.5835 61.2202 41.2623 61.8489 42.255 61.8489C43.2531 61.8489 43.9295 61.2144 44.3326 60.6523C44.7418 60.082 45.0496 59.3489 45.2982 58.606C45.7761 57.1791 46.1561 55.3276 46.5181 53.5662L46.5703 53.3104C46.9603 51.4146 47.3346 49.644 47.7969 48.3467C47.8971 48.0645 47.9957 47.8239 48.0898 47.6218C48.7982 49.2453 49.1911 51.038 49.1911 52.9224C49.1911 60.2504 43.2507 66.1913 35.9224 66.1913C28.5943 66.1913 22.6537 60.2504 22.6537 52.9224C22.6537 50.9952 23.0646 49.1639 23.8036 47.5114ZM35.9224 37C27.1287 37 20 44.1287 20 52.9224C20 61.7161 27.1287 68.8449 35.9224 68.8449C44.7163 68.8449 51.8447 61.7161 51.8447 52.9224C51.8447 44.1287 44.7163 37 35.9224 37ZM36.2239 46.8486C36.2251 46.8477 36.2258 46.8469 36.2258 46.8469C36.2258 46.8469 36.2226 46.8484 36.2165 46.8533C36.2198 46.8514 36.2223 46.8498 36.2239 46.8486ZM35.859 46.8487C35.8528 46.845 35.8498 46.842 35.8498 46.842C35.8498 46.842 35.8529 46.8436 35.859 46.8487ZM42.0533 59.2483C42.0533 59.2483 42.0562 59.2454 42.0619 59.2417C42.0562 59.2466 42.0533 59.2483 42.0533 59.2483ZM42.4391 59.2376C42.4453 59.2413 42.4486 59.2442 42.4486 59.2442C42.4486 59.2442 42.4453 59.2425 42.4391 59.2376ZM29.4986 59.2721C29.4986 59.2721 29.5024 59.268 29.5101 59.2626C29.5025 59.2696 29.4986 59.2721 29.4986 59.2721ZM30.0361 59.2651C30.0437 59.2704 30.0474 59.2746 30.0474 59.2746C30.0474 59.2746 30.0436 59.2725 30.0361 59.2651Z" fill="#FCBB01"/>
<path d="M60.6367 62.3489L56.7755 49.1413H60.1576L62.4476 58.6475L65.1102 49.1413H68.8913L71.5544 58.6475L73.871 49.1413H77.2528L73.3652 62.3489H69.8237L67.0008 52.4698L64.1783 62.3489H60.6367Z" fill="#242A31"/>
<path d="M82.2152 62.6686C81.0791 62.6686 80.1471 62.4907 79.4194 62.1357C78.6917 61.763 78.1502 61.2748 77.7951 60.6712C77.4401 60.0676 77.2626 59.4019 77.2626 58.6742C77.2626 57.4493 77.7417 56.4552 78.7004 55.6918C79.659 54.9285 81.0972 54.5468 83.0144 54.5468H86.3694V54.2272C86.3694 53.3219 86.1118 52.6562 85.5973 52.2301C85.0825 51.8041 84.4431 51.5911 83.6801 51.5911C82.9877 51.5911 82.3841 51.7597 81.8692 52.097C81.3544 52.4166 81.0347 52.8958 80.9106 53.5349H77.5819C77.6711 52.5763 77.9903 51.742 78.5405 51.0319C79.1088 50.3218 79.8365 49.7803 80.724 49.4076C81.612 49.017 82.606 48.8218 83.7064 48.8218C85.5883 48.8218 87.0704 49.2922 88.1536 50.233C89.2363 51.1739 89.7779 52.5053 89.7779 54.2272V62.3489H86.8752L86.556 60.2188C86.1652 60.9288 85.615 61.5144 84.905 61.9762C84.2126 62.4377 83.316 62.6686 82.2152 62.6686ZM82.9877 60.0056C83.964 60.0056 84.7184 59.6859 85.251 59.0469C85.8011 58.408 86.1475 57.6178 86.2897 56.677H83.3871C82.4815 56.677 81.8339 56.8457 81.4431 57.183C81.0528 57.5025 80.8572 57.9021 80.8572 58.3813C80.8572 58.8961 81.0528 59.2955 81.4431 59.5794C81.8339 59.8634 82.3483 60.0056 82.9877 60.0056Z" fill="#242A31"/>
<path d="M95.1434 62.3489L90.2972 49.1413H93.8651L97.2205 59.127L100.576 49.1413H104.144L99.2709 62.3489H95.1434Z" fill="#242A31"/>
<path d="M110.996 62.6686C109.664 62.6686 108.484 62.3843 107.454 61.8164C106.425 61.2481 105.617 60.4493 105.031 59.4196C104.445 58.3903 104.152 57.2007 104.152 55.8516C104.152 54.4847 104.436 53.2687 105.004 52.2035C105.59 51.1384 106.389 50.3129 107.401 49.7271C108.43 49.1235 109.638 48.8218 111.022 48.8218C112.318 48.8218 113.463 49.1058 114.457 49.6738C115.451 50.2419 116.224 51.023 116.774 52.0171C117.342 52.9935 117.626 54.0852 117.626 55.2924C117.626 55.4877 117.617 55.6918 117.6 55.9048C117.6 56.1179 117.591 56.3398 117.573 56.5705H107.534C107.605 57.6001 107.96 58.408 108.599 58.9939C109.256 59.5794 110.046 59.8724 110.969 59.8724C111.661 59.8724 112.239 59.7216 112.7 59.4196C113.179 59.1003 113.534 58.6919 113.765 58.1947H117.227C116.978 59.0292 116.561 59.7927 115.975 60.4851C115.407 61.1594 114.697 61.6919 113.845 62.0827C113.011 62.473 112.061 62.6686 110.996 62.6686ZM111.022 51.5911C110.188 51.5911 109.451 51.8307 108.812 52.31C108.173 52.7716 107.765 53.4817 107.587 54.4403H114.164C114.111 53.5704 113.792 52.8781 113.206 52.3633C112.62 51.8485 111.892 51.5911 111.022 51.5911Z" fill="#242A31"/>
<path d="M119.428 62.3489V43.1765H122.836V62.3489H119.428Z" fill="#242A31"/>
<path d="M131.671 62.6686C130.34 62.6686 129.159 62.3843 128.129 61.8164C127.1 61.2481 126.292 60.4493 125.706 59.4196C125.12 58.3903 124.828 57.2007 124.828 55.8516C124.828 54.4847 125.112 53.2687 125.68 52.2035C126.265 51.1384 127.064 50.3129 128.076 49.7271C129.106 49.1235 130.313 48.8218 131.698 48.8218C132.994 48.8218 134.139 49.1058 135.133 49.6738C136.127 50.2419 136.899 51.023 137.449 52.0171C138.017 52.9935 138.302 54.0852 138.302 55.2924C138.302 55.4877 138.293 55.6918 138.275 55.9048C138.275 56.1179 138.266 56.3398 138.248 56.5705H128.209C128.281 57.6001 128.636 58.408 129.275 58.9939C129.931 59.5794 130.721 59.8724 131.645 59.8724C132.337 59.8724 132.914 59.7216 133.375 59.4196C133.854 59.1003 134.209 58.6919 134.44 58.1947H137.902C137.654 59.0292 137.236 59.7927 136.651 60.4851C136.082 61.1594 135.372 61.6919 134.52 62.0827C133.686 62.473 132.736 62.6686 131.671 62.6686ZM131.698 51.5911C130.863 51.5911 130.127 51.8307 129.487 52.31C128.848 52.7716 128.44 53.4817 128.262 54.4403H134.84C134.786 53.5704 134.467 52.8781 133.881 52.3633C133.295 51.8485 132.567 51.5911 131.698 51.5911Z" fill="#242A31"/>
<path d="M145.562 62.6686C144.39 62.6686 143.361 62.4821 142.473 62.1094C141.585 61.7186 140.875 61.1861 140.343 60.5114C139.81 59.8371 139.491 59.056 139.384 58.1684H142.819C142.926 58.6829 143.21 59.127 143.671 59.4997C144.15 59.8548 144.763 60.0323 145.508 60.0323C146.254 60.0323 146.796 59.8815 147.133 59.5794C147.488 59.2778 147.665 58.9315 147.665 58.5411C147.665 57.9728 147.417 57.5911 146.92 57.396C146.423 57.183 145.73 56.9788 144.843 56.7836C144.275 56.6593 143.698 56.5084 143.112 56.3309C142.526 56.1534 141.985 55.9315 141.488 55.6652C141.008 55.3811 140.618 55.0261 140.316 54.6001C140.014 54.1562 139.863 53.6148 139.863 52.9757C139.863 51.8041 140.325 50.8189 141.248 50.02C142.189 49.2212 143.502 48.8218 145.189 48.8218C146.751 48.8218 147.994 49.1857 148.917 49.9135C149.858 50.6414 150.417 51.6443 150.595 52.9225H147.373C147.177 51.9461 146.44 51.4579 145.162 51.4579C144.523 51.4579 144.026 51.5822 143.671 51.8307C143.334 52.0793 143.165 52.3899 143.165 52.7627C143.165 53.1533 143.423 53.4639 143.938 53.6947C144.452 53.9255 145.136 54.1385 145.988 54.3338C146.911 54.5468 147.754 54.7864 148.517 55.0528C149.299 55.3013 149.92 55.6829 150.382 56.1978C150.843 56.6948 151.074 57.4138 151.074 58.3545C151.092 59.1714 150.878 59.9078 150.435 60.5648C149.991 61.2214 149.352 61.7363 148.517 62.1094C147.683 62.4821 146.698 62.6686 145.562 62.6686Z" fill="#242A31"/>
<path d="M158.487 62.6686C157.315 62.6686 156.286 62.4821 155.398 62.1094C154.51 61.7186 153.8 61.1861 153.268 60.5114C152.735 59.8371 152.416 59.056 152.309 58.1684H155.744C155.851 58.6829 156.135 59.127 156.596 59.4997C157.076 59.8548 157.688 60.0323 158.434 60.0323C159.179 60.0323 159.721 59.8815 160.058 59.5794C160.413 59.2778 160.591 58.9315 160.591 58.5411C160.591 57.9728 160.342 57.5911 159.845 57.396C159.348 57.183 158.656 56.9788 157.768 56.7836C157.2 56.6593 156.623 56.5084 156.037 56.3309C155.451 56.1534 154.91 55.9315 154.413 55.6652C153.934 55.3811 153.543 55.0261 153.241 54.6001C152.939 54.1562 152.788 53.6148 152.788 52.9757C152.788 51.8041 153.25 50.8189 154.173 50.02C155.114 49.2212 156.428 48.8218 158.114 48.8218C159.676 48.8218 160.919 49.1857 161.842 49.9135C162.783 50.6414 163.342 51.6443 163.519 52.9225H160.298C160.102 51.9461 159.366 51.4579 158.087 51.4579C157.448 51.4579 156.951 51.5822 156.596 51.8307C156.259 52.0793 156.09 52.3899 156.09 52.7627C156.09 53.1533 156.348 53.4639 156.862 53.6947C157.377 53.9255 158.061 54.1385 158.913 54.3338C159.836 54.5468 160.679 54.7864 161.443 55.0528C162.224 55.3013 162.845 55.6829 163.307 56.1978C163.768 56.6948 163.999 57.4138 163.999 58.3545C164.017 59.1714 163.804 59.9078 163.36 60.5648C162.916 61.2214 162.277 61.7363 161.443 62.1094C160.608 62.4821 159.623 62.6686 158.487 62.6686Z" fill="#242A31"/>
</svg>
